<?xml version="1.0" standalone="no"?>
<!DOCTYPE svg PUBLIC "-//W3C//DTD SVG 20010904//EN"
 "http://www.w3.org/TR/2001/REC-SVG-20010904/DTD/svg10.dtd">
<svg version="1.0" xmlns="http://www.w3.org/2000/svg"
 width="848.000000pt" height="848.000000pt" viewBox="0 0 848.000000 848.000000"
 preserveAspectRatio="xMidYMid meet">
<metadata>
Created by potrace 1.14, written by Peter Selinger 2001-2017
</metadata>
<g transform="translate(0.000000,848.000000) scale(0.100000,-0.100000)"
fill="#000000" stroke="none">
<path d="M5667 8414 c-1 -1 -168 -5 -372 -8 -203 -3 -393 -8 -421 -10 -29 -3
-84 -7 -123 -8 l-71 -3 0 -183 c0 -107 4 -191 10 -203 8 -13 7 -19 0 -19 -7 0
-10 -61 -8 -187 l3 -188 36 -3 36 -3 0 -1115 c0 -613 -3 -1117 -7 -1119 -4 -3
-47 2 -96 9 -62 10 -140 13 -259 9 -291 -8 -320 -8 -337 0 -13 7 -24 -3 -50
-45 -19 -29 -45 -75 -58 -101 -22 -44 -50 -77 -106 -124 -28 -24 -56 -92 -50
-120 4 -12 39 -45 83 -76 43 -30 98 -73 123 -96 107 -99 152 -146 165 -172 14
-26 13 -27 -8 -22 -12 3 -27 10 -34 15 -16 13 -52 -8 -51 -30 1 -9 -8 -37 -20
-62 -11 -25 -24 -58 -27 -72 -6 -22 -18 -31 -68 -47 -34 -11 -73 -22 -87 -25
-14 -3 -59 -12 -100 -20 -41 -8 -87 -17 -102 -20 -88 -16 -278 -77 -302 -98
-6 -4 -27 -8 -48 -8 -43 0 -78 -27 -78 -60 0 -12 -7 -35 -16 -51 -18 -35 -12
-37 -128 48 -88 63 -411 220 -491 238 -5 1 -17 5 -25 8 -8 4 -46 15 -85 25
-167 45 -292 7 -427 -130 -43 -43 -78 -83 -78 -88 0 -5 -6 -15 -13 -22 -20
-20 -91 -155 -120 -228 -73 -186 -97 -250 -101 -274 -7 -38 -27 -99 -37 -111
-7 -9 -75 -227 -83 -264 -2 -9 -8 -29 -15 -46 -19 -45 -49 -138 -55 -166 -3
-13 -12 -55 -20 -94 -8 -38 -17 -88 -20 -110 -3 -22 -9 -62 -15 -90 -21 -105
-29 -304 -17 -405 3 -19 7 -60 10 -90 3 -30 8 -66 11 -80 3 -14 8 -49 11 -79
6 -67 25 -105 74 -153 54 -52 188 -115 285 -134 6 -1 35 -6 65 -13 30 -6 69
-13 85 -16 38 -6 217 -19 272 -19 24 0 40 -3 35 -7 -4 -3 -79 -30 -167 -58
-88 -29 -169 -56 -180 -60 -21 -9 -452 -152 -470 -156 -5 -1 -23 -7 -38 -13
-15 -7 -40 -15 -54 -18 -87 -22 -284 -143 -362 -223 -36 -37 -125 -161 -116
-161 4 0 3 -6 -2 -13 -6 -6 -22 -52 -37 -102 -15 -49 -34 -110 -42 -134 -18
-57 -18 -76 3 -96 18 -18 52 -15 133 12 25 9 50 16 55 18 6 1 30 8 55 15 25 8
47 14 50 15 64 18 97 28 105 33 6 4 16 7 23 8 74 12 404 113 550 170 37 14 96
37 132 51 36 14 74 27 85 29 50 10 211 108 423 259 62 44 121 85 130 90 10 6
24 16 32 23 42 36 112 84 105 71 -4 -8 -56 -87 -114 -177 -58 -90 -106 -166
-107 -170 0 -4 -10 -27 -21 -52 -108 -242 -54 -549 128 -733 93 -93 122 -131
159 -212 18 -39 37 -78 41 -87 5 -10 9 -28 9 -42 0 -27 12 -39 55 -53 55 -19
97 9 122 82 8 25 32 63 52 84 33 34 229 171 245 171 36 0 188 98 241 156 164
178 260 320 335 495 16 38 25 69 19 69 -6 0 -6 6 0 19 6 10 9 20 7 22 -2 2 -7
30 -11 63 -3 32 -15 86 -25 120 -24 75 -24 73 -2 54 26 -23 138 -83 233 -124
78 -34 222 -74 314 -88 243 -38 392 -39 520 -5 22 6 51 13 65 15 45 8 63 15
175 61 61 26 118 53 128 61 9 8 17 11 17 6 0 -5 4 -4 8 2 4 6 42 30 85 53 110
60 180 121 339 292 24 26 50 62 59 80 32 65 48 105 53 131 2 14 9 35 14 45 6
10 10 20 10 23 4 36 16 90 21 91 3 1 60 2 126 4 625 18 745 25 745 46 0 6 4 8
9 4 31 -18 35 41 35 535 1 446 3 495 17 495 9 0 36 16 61 35 43 33 47 40 62
110 19 89 19 89 33 116 7 11 13 49 14 83 3 75 35 152 76 178 25 16 42 34 65
67 4 7 20 -3 40 -25 49 -52 59 -58 138 -80 40 -11 85 -26 101 -34 27 -14 29
-14 53 18 43 56 86 158 79 186 -10 43 -53 122 -104 193 -27 37 -56 87 -65 110
-51 141 -64 186 -64 220 0 35 2 38 23 34 75 -13 157 -17 169 -8 61 49 88 83
107 134 11 32 18 64 15 72 -7 17 -104 94 -160 126 l-41 24 24 34 c26 40 50
111 59 184 7 49 6 49 -42 96 -27 26 -68 60 -92 75 -33 21 -42 33 -37 45 23 57
27 78 20 128 l-7 56 -71 -7 c-40 -3 -72 -7 -73 -8 -1 -1 -8 -14 -15 -29 l-15
-28 -16 33 c-9 17 -24 48 -32 67 -19 42 -48 76 -98 112 -59 45 -68 57 -85 121
-15 52 -27 71 -78 122 l-60 60 -1 918 -1 917 39 0 38 0 0 394 0 393 -62 2
c-35 2 -90 5 -123 7 -121 8 -1061 24 -1068 18z m-2293 -6211 c7 -27 11 -51 7
-55 -3 -4 -22 -10 -41 -13 -19 -3 -62 -15 -95 -26 -94 -33 -115 -38 -115 -29
0 5 15 16 33 25 17 8 66 44 107 79 41 36 78 65 82 65 4 1 14 -20 22 -46z"/>
</g>
</svg>
